HIERARCHY
ROOT Hips
{
	OFFSET -21.947001 39.810204 44.525997
	CHANNELS 6 Xposition Yposition Zposition Zrotation Xrotation Yrotation
	JOINT Chest
	{
		OFFSET -0.201599 0.334099 6.453201
		CHANNELS 6 Xposition Yposition Zposition Zrotation Xrotation Yrotation
		JOINT Chest2
		{
			OFFSET 0.000000 0.000000 3.568001
			CHANNELS 6 Xposition Yposition Zposition Zrotation Xrotation Yrotation
			JOINT Neck
			{
				OFFSET 0.000000 0.000000 8.296402
				CHANNELS 6 Xposition Yposition Zposition Zrotation Xrotation Yrotation
				JOINT Head
				{
					OFFSET 0.000000 0.000000 2.173901
					CHANNELS 6 Xposition Yposition Zposition Zrotation Xrotation Yrotation
					End Site
					{
						OFFSET 0.000000 0.000000 7.891998
					}
				}
			}
			JOINT LeftCollar
			{
				OFFSET 1.927601 0.221401 6.049000
				CHANNELS 6 Xposition Yposition Zposition Zrotation Xrotation Yrotation
				JOINT LeftShoulder
				{
					OFFSET 4.959700 0.000000 0.000000
					CHANNELS 6 Xposition Yposition Zposition Zrotation Xrotation Yrotation
					JOINT LeftElbow
					{
						OFFSET 0.000000 0.000000 -8.654202
						CHANNELS 6 Xposition Yposition Zposition Zrotation Xrotation Yrotation
						JOINT LeftWrist
						{
							OFFSET 0.000000 0.000000 -13.864101
							CHANNELS 6 Xposition Yposition Zposition Zrotation Xrotation Yrotation
							End Site
							{
								OFFSET 0.000000 0.000000 -2.173901
							}
						}
					}
				}
			}
			JOINT RightCollar
			{
				OFFSET -3.155701 -0.764999 6.687801
				CHANNELS 6 Xposition Yposition Zposition Zrotation Xrotation Yrotation
				JOINT RightShoulder
				{
					OFFSET -3.592899 0.000000 0.000000
					CHANNELS 6 Xposition Yposition Zposition Zrotation Xrotation Yrotation
					JOINT RightElbow
					{
						OFFSET 0.000000 0.000000 -10.352398
						CHANNELS 6 Xposition Yposition Zposition Zrotation Xrotation Yrotation
						JOINT RightWrist
						{
							OFFSET 0.000000 0.000000 -12.750301
							CHANNELS 6 Xposition Yposition Zposition Zrotation Xrotation Yrotation
							End Site
							{
								OFFSET 0.000000 0.000000 -2.173901
							}
						}
					}
				}
			}
		}
	}
	JOINT LeftHip
	{
		OFFSET 2.460600 -0.518101 -2.735500
		CHANNELS 6 Xposition Yposition Zposition Zrotation Xrotation Yrotation
		JOINT LeftKnee
		{
			OFFSET 0.000000 -0.000004 -17.005899
			CHANNELS 6 Xposition Yposition Zposition Zrotation Xrotation Yrotation
			JOINT LeftAnkle
			{
				OFFSET 0.000000 0.000000 -19.194401
				CHANNELS 6 Xposition Yposition Zposition Zrotation Xrotation Yrotation
				End Site
				{
					OFFSET 0.000000 -8.134600 0.000000
				}
			}
		}
	}
	JOINT RightHip
	{
		OFFSET -3.115499 -0.679600 -2.320301
		CHANNELS 6 Xposition Yposition Zposition Zrotation Xrotation Yrotation
		JOINT RightKnee
		{
			OFFSET 0.000000 -0.000004 -17.680401
			CHANNELS 6 Xposition Yposition Zposition Zrotation Xrotation Yrotation
			JOINT RightAnkle
			{
				OFFSET 0.000000 0.000000 -16.993797
				CHANNELS 6 Xposition Yposition Zposition Zrotation Xrotation Yrotation
				End Site
				{
					OFFSET 0.000000 -8.842300 0.000000
				}
			}
		}
	}
}
MOTION
Frames: 7
Frame Time: 0.041667
64.192810 8.257912 37.942696 2879.579996 18.357918 -5.041148 -0.201603 0.334098 6.453205 -0.983778 14.626208 5.489392 -0.000001 0.000000 3.568001 -3.171556 -7.284292 -1.708255 0.000000 -0.000005 8.296402 177.635079 -156.777936 179.890613 0.000003 -0.000001 2.173898 1.458995 -7.289086 -0.589121 1.927600 0.221402 6.049001 -15.751550 -1.067857 2.394012 4.959702 -0.000001 0.000001 185.393177 180.650662 107.551335 0.000005 0.000000 -8.654206 70.150237 -7.137919 2.641036 -0.000001 0.000003 -13.864098 3908.752245 -22.419707 -394.238628 -3.155703 -0.765001 6.687803 29.050478 -1.818875 -1.313407 -3.592898 -0.000001 0.000009 -198.158705 175.720714 251.334979 -0.000009 0.000002 -10.352391 -408.206993 -12.428605 -353.277874 -0.000006 0.000001 -12.750295 192.159039 193.139295 -88.940995 2.460599 -0.518103 -2.735502 -1024.237027 -36.846722 43.655113 -0.000003 -0.000013 -17.005898 783.938568 155.257549 -114.166189 -0.000007 -0.000006 -19.194401 233.230961 175.328866 208.657553 -3.115495 -0.679598 -2.320305 -429.665235 -45.579970 -56.514273 -0.000009 -0.000007 -17.680405 -746.147951 182.592690 -259.772913 -0.000002 -0.000009 -16.993792 1370.156493 21.958840 -410.270175
64.180702 8.296906 37.865601 2879.859542 18.562531 -5.146765 -0.201589 0.334095 6.453208 -1.259200 14.603790 5.536420 0.000006 0.000002 3.567997 -3.226923 -7.146616 -1.701806 0.000000 -0.000007 8.296393 177.616665 -157.376588 180.030208 -0.000004 0.000001 2.173908 1.784979 -7.183560 -0.453221 1.927596 0.221405 6.049004 -15.982579 -0.895477 2.617373 4.959708 0.000000 0.000000 184.934325 180.700728 108.500383 0.000003 0.000000 -8.654209 70.347458 -7.403805 2.864752 -0.000001 -0.000000 -13.864100 3909.581484 -21.654476 -393.696284 -3.155707 -0.765000 6.687804 29.535579 -1.475848 -1.594903 -3.592889 -0.000004 0.000006 -197.662355 175.841772 250.453994 0.000001 0.000000 -10.352406 -408.597653 -11.885925 -353.627525 -0.000001 0.000000 -12.750292 191.891842 192.760943 -88.760166 2.460614 -0.518104 -2.735501 -1023.587121 -36.857364 44.477239 0.000011 0.000000 -17.005894 783.109711 155.477249 -113.612697 -0.000005 0.000000 -19.194401 233.391061 175.456877 208.961073 -3.115483 -0.679602 -2.320300 -430.365794 -45.674954 -57.158100 -0.000005 0.000005 -17.680397 -746.059323 182.728843 -259.959377 0.000006 -0.000005 -16.993790 1370.102398 21.907857 -410.465928
64.174805 8.332705 37.781094 2880.073518 18.592661 -5.512379 -0.201607 0.334100 6.453199 -1.593123 14.828984 5.986449 -0.000004 0.000003 3.567993 -3.111950 -7.101846 -1.673019 0.000001 0.000001 8.296398 177.380300 -157.920599 180.114943 0.000003 0.000003 2.173898 2.095486 -7.139562 -0.575316 1.927598 0.221403 6.048993 -16.255840 -0.685337 2.849462 4.959712 -0.000001 0.000004 184.191637 181.041486 109.184317 0.000001 0.000000 -8.654212 70.037866 -7.393807 2.808948 -0.000011 0.000003 -13.864092 3910.693985 -21.404401 -393.218171 -3.155701 -0.765001 6.687799 29.751133 -1.279687 -2.158429 -3.592895 0.000001 0.000002 -197.175267 176.243278 249.821846 -0.000004 -0.000001 -10.352410 -408.527247 -11.148616 -353.814181 -0.000007 -0.000001 -12.750296 191.528408 192.701316 -88.711972 2.460588 -0.518102 -2.735501 -1022.987048 -36.577487 45.230066 -0.000008 0.000003 -17.005894 782.417731 155.680543 -113.110098 -0.000006 0.000007 -19.194401 233.535069 175.550096 209.124137 -3.115510 -0.679599 -2.320308 -430.803117 -46.011607 -57.437882 -0.000010 -0.000007 -17.680401 -745.984846 183.009277 -260.179172 0.000002 0.000005 -16.993795 1369.963171 21.821669 -410.638650
64.154907 8.369606 37.713894 2880.133624 18.877678 -5.433255 -0.201593 0.334095 6.453197 -1.614360 14.791166 5.858073 -0.000001 0.000003 3.567994 -3.037811 -7.016127 -1.638110 -0.000004 -0.000003 8.296400 177.425188 -158.419831 180.337444 0.000001 -0.000001 2.173905 2.203723 -6.933297 -0.447453 1.927601 0.221402 6.048995 -16.265047 -0.679217 3.136504 4.959700 -0.000002 0.000004 183.120459 181.122656 109.923282 0.000005 -0.000013 -8.654188 70.248352 -7.267152 2.708487 0.000003 -0.000005 -13.864100 3911.159531 -21.062820 -392.671264 -3.155706 -0.765003 6.687801 30.089739 -1.042305 -2.625893 -3.592896 0.000001 0.000005 -196.632431 176.225492 249.240242 0.000000 0.000003 -10.352406 -408.695680 -10.407151 -354.057172 -0.000004 0.000002 -12.750287 190.822412 192.863874 -88.684945 2.460597 -0.518106 -2.735501 -1022.393094 -36.811250 45.854909 -0.000004 0.000001 -17.005898 781.876999 155.902538 -112.686114 -0.000006 -0.000002 -19.194399 233.699048 175.619750 209.327949 -3.115493 -0.679605 -2.320296 -431.300792 -46.054511 -58.169730 -0.000007 -0.000006 -17.680401 -745.988726 183.068358 -260.392438 -0.000001 0.000002 -16.993797 1369.933337 21.765306 -410.743370
64.129814 8.408413 37.655396 2880.418853 19.100508 -5.546637 -0.201601 0.334094 6.453202 -1.908865 14.724327 5.995756 0.000002 0.000001 3.567996 -3.056891 -6.931597 -1.637412 0.000005 -0.000001 8.296403 177.329128 -159.083439 180.371417 -0.000002 0.000001 2.173906 2.356493 -6.740440 -0.316652 1.927602 0.221404 6.049005 -16.653284 -0.357115 3.256943 4.959703 -0.000004 -0.000006 182.639013 181.694001 110.698420 -0.000011 0.000005 -8.654197 70.340430 -7.210997 2.734824 -0.000005 -0.000005 -13.864092 3911.771516 -20.438175 -392.205609 -3.155702 -0.764999 6.687804 30.354973 -0.863178 -3.186994 -3.592908 0.000003 0.000002 -195.802850 176.307413 248.656315 0.000002 0.000002 -10.352406 -408.963642 -9.554455 -354.302977 0.000006 0.000000 -12.750299 190.098071 193.140087 -89.049759 2.460598 -0.518099 -2.735501 -1021.783295 -36.832495 46.610481 -0.000005 -0.000004 -17.005901 781.217749 156.090354 -112.223423 -0.000011 0.000006 -19.194401 233.791583 175.672506 209.403204 -3.115499 -0.679602 -2.320312 -432.096591 -46.084345 -58.916119 -0.000010 -0.000006 -17.680401 -745.826003 183.241299 -260.610949 0.000004 -0.000003 -16.993793 1369.843397 21.742881 -410.847627
64.105110 8.443104 37.596691 2880.693809 19.186421 -5.601337 -0.201598 0.334099 6.453206 -2.167661 14.926740 5.904741 0.000005 0.000002 3.567997 -2.890537 -6.896919 -1.590123 -0.000001 -0.000003 8.296396 177.235991 -159.539886 180.661290 -0.000000 0.000001 2.173897 2.322976 -6.670820 -0.537109 1.927599 0.221402 6.048998 -16.938082 -0.094803 3.455425 4.959706 0.000000 -0.000000 181.746361 182.373824 111.559365 -0.000007 0.000000 -8.654202 69.898312 -7.081985 2.583249 -0.000003 0.000007 -13.864092 3912.409729 -19.889502 -392.294565 -3.155696 -0.765000 6.687800 30.416103 -0.707072 -3.379598 -3.592896 -0.000004 -0.000000 -195.153654 176.741568 247.842676 -0.000002 -0.000000 -10.352404 -408.860342 -8.755765 -354.511407 0.000001 0.000000 -12.750299 188.933045 193.871573 -89.823647 2.460600 -0.518098 -2.735502 -1021.863072 -37.061665 46.871763 -0.000008 -0.000004 -17.005898 781.161741 156.055588 -111.948276 -0.000007 0.000001 -19.194399 233.804315 175.677206 209.336419 -3.115499 -0.679599 -2.320305 -432.845262 -45.982374 -59.572807 -0.000005 -0.000018 -17.680397 -745.612847 183.420345 -260.868639 0.000002 0.000000 -16.993797 1369.763074 21.746108 -410.901203
64.084106 8.476404 37.541401 2880.692279 19.121181 -5.617055 -0.201601 0.334093 6.453207 -2.241536 15.326997 6.073950 -0.000004 0.000003 3.567995 -2.709461 -6.927888 -1.564258 -0.000014 -0.000005 8.296399 177.130082 -160.102557 180.709074 0.000002 -0.000000 2.173900 2.252512 -6.496830 -0.570447 1.927590 0.221399 6.048996 -17.313070 0.306054 3.301962 4.959706 -0.000004 -0.000005 180.790681 183.111907 112.528371 0.000005 0.000002 -8.654192 68.860424 -6.726598 2.204909 -0.000004 0.000000 -13.864092 3913.589986 -19.436094 -392.225853 -3.155711 -0.765009 6.687801 30.324032 -0.686573 -3.855749 -3.592904 0.000001 0.000005 -194.200884 177.023777 247.206375 -0.000006 0.000005 -10.352390 -408.535334 -7.729676 -354.707378 -0.000001 -0.000001 -12.750292 187.673750 194.693695 -89.995187 2.460588 -0.518105 -2.735501 -1021.689202 -37.124127 47.032478 -0.000004 -0.000002 -17.005898 780.997489 156.137469 -111.687868 -0.000010 -0.000002 -19.194397 233.884856 175.642740 209.328824 -3.115503 -0.679603 -2.320303 -433.115819 -45.893089 -59.884981 -0.000009 -0.000003 -17.680403 -745.424279 183.641083 -261.100592 0.000004 -0.000005 -16.993793 1369.647671 21.751931 -410.902924
